HIERARCHY
ROOT Hips
{
 OFFSET 0.000000 0.000000 0.000000
 CHANNELS 6 Xposition Yposition Zposition Yrotation Xrotation Zrotation
 JOINT Chest
 {
  OFFSET 0.000000 9.585900 0.002600
  CHANNELS 3 Yrotation Xrotation Zrotation
  JOINT Chest2
  {
   OFFSET 0.000000 9.601200 -0.005300
   CHANNELS 3 Yrotation Xrotation Zrotation
   JOINT Chest3
   {
    OFFSET 0.000000 9.561800 0.000000
    CHANNELS 3 Yrotation Xrotation Zrotation
    JOINT Chest4
    {
     OFFSET 0.000000 9.552100 0.000000
     CHANNELS 3 Yrotation Xrotation Zrotation
     JOINT Neck
     {
      OFFSET 0.000000 14.453000 0.000000
      CHANNELS 3 Yrotation Xrotation Zrotation
      JOINT Head
      {
       OFFSET 0.000000 8.936500 -0.011300
       CHANNELS 3 Yrotation Xrotation Zrotation
       End Site
       {
        OFFSET 0.000000 17.073600 -0.006000
       }
      }
     }
     JOINT RightCollar
     {
      OFFSET -2.921100 9.558500 0.000000
      CHANNELS 3 Yrotation Xrotation Zrotation
      JOINT RightShoulder
      {
       OFFSET -13.519700 0.000000 0.000000
       CHANNELS 3 Yrotation Xrotation Zrotation
       JOINT RightElbow
       {
        OFFSET 0.000000 -29.696600 0.000000
        CHANNELS 3 Yrotation Xrotation Zrotation
        JOINT RightWrist
        {
         OFFSET 0.000000 -24.004700 0.000000
         CHANNELS 3 Yrotation Xrotation Zrotation
         End Site
         {
          OFFSET 0.000000 -17.728500 0.000000
         }
        }
       }
      }
     }
     JOINT LeftCollar
     {
      OFFSET 2.921100 9.558500 0.000000
      CHANNELS 3 Yrotation Xrotation Zrotation
      JOINT LeftShoulder
      {
       OFFSET 13.519700 0.000000 0.000000
       CHANNELS 3 Yrotation Xrotation Zrotation
       JOINT LeftElbow
       {
        OFFSET 0.000000 -29.696600 0.000000
        CHANNELS 3 Yrotation Xrotation Zrotation
        JOINT LeftWrist
        {
         OFFSET 0.000000 -24.004700 0.000000
         CHANNELS 3 Yrotation Xrotation Zrotation
         End Site
         {
          OFFSET 0.000000 -17.728500 0.000000
         }
        }
       }
      }
     }
    }
   }
  }
 }
 JOINT RightHip
 {
  OFFSET -7.771700 -0.012900 -0.001300
  CHANNELS 3 Yrotation Xrotation Zrotation
  JOINT RightKnee
  {
   OFFSET 0.000000 -40.869800 0.001200
   CHANNELS 3 Yrotation Xrotation Zrotation
   JOINT RightAnkle
   {
    OFFSET 0.000000 -39.717900 0.002100
    CHANNELS 3 Yrotation Xrotation Zrotation
    JOINT RightToe
    {
     OFFSET 0.000000 -4.965400 11.033500
     CHANNELS 3 Yrotation Xrotation Zrotation
     End Site
     {
      OFFSET 0.000000 -1.423100 5.872300
     }
    }
   }
  }
 }
 JOINT LeftHip
 {
  OFFSET 7.771700 -0.012900 -0.001300
  CHANNELS 3 Yrotation Xrotation Zrotation
  JOINT LeftKnee
  {
   OFFSET 0.000000 -40.869800 0.001200
   CHANNELS 3 Yrotation Xrotation Zrotation
   JOINT LeftAnkle
   {
    OFFSET 0.000000 -39.717900 0.002100
    CHANNELS 3 Yrotation Xrotation Zrotation
    JOINT LeftToe
    {
     OFFSET 0.000000 -4.965400 11.033500
     CHANNELS 3 Yrotation Xrotation Zrotation
     End Site
     {
      OFFSET 0.000000 -1.423100 5.872300
     }
    }
   }
  }
 }
}
MOTION
Frames: 9
Frame Time: 0.008333
0.000000 85.388000 0.000000 0.000000 -5.767877 0.000000 0.000000 11.653817 0.000000 0.000000 -5.885947 0.000000 0.000000 -0.000000 0.000000 0.000000 -0.000000 0.000000 0.000000 12.528835 0.000000 0.000000 0.711642 0.000000 0.000000 -0.000000 0.000000 0.000000 0.000000 -90.000000 0.000000 -2.309062 0.000000 0.000000 2.309062 0.000000 0.000000 -0.000000 0.000000 0.000000 -0.000000 90.000000 0.000000 -2.309062 0.000000 0.000000 2.309062 0.000000 0.000000 8.520406 0.000000 0.000000 1.905762 0.000000 -0.000000 -4.658285 0.000000 0.000000 -0.000000 0.000000 0.000000 8.520406 0.000000 0.000000 1.905762 0.000000 -0.000000 -4.658285 0.000000 0.000000 -0.000000 0.000000
1.544899 55.179815 -20.219049 176.953939 -15.524274 -1.961710 0.998914 14.659539 0.646105 0.080861 1.308486 0.060048 0.142376 2.214356 0.101311 0.917312 13.136125 0.693149 0.403139 14.170391 1.871115 0.005409 -10.843227 1.855855 -0.275122 -0.347100 2.638106 2.827225 -4.792784 -8.842996 -61.984406 -65.301871 92.963396 -14.130819 -8.408461 4.208297 -5.719453 -2.262321 2.279219 1.579879 -9.049493 7.622686 43.239533 -51.271976 -82.934779 7.784839 -11.783164 3.746467 0.726409 -59.619841 15.187932 -97.551925 87.908333 -100.634239 -11.698875 -21.967876 12.542591 0.012536 -0.066650 -0.006832 10.220273 -56.439369 -4.077000 115.070186 76.764152 113.914501 -5.947801 -24.240118 -0.059031 0.043085 0.158217 0.014431
1.542921 55.179652 -20.218901 176.958301 -15.523777 -1.958830 0.996468 14.660830 0.641641 0.083748 1.313753 0.059155 0.139932 2.214977 0.102392 0.915736 13.143211 0.688189 0.408028 14.162001 1.876676 0.008166 -10.848830 1.860070 -0.287806 -0.364156 2.644497 2.840311 -4.789407 -8.843165 -61.976044 -65.300430 92.953859 -14.132122 -8.405078 4.211842 -5.727286 -2.276655 2.295040 1.578312 -9.049719 7.623990 43.234731 -51.264585 -82.940315 7.784063 -11.780282 3.734590 0.728054 -59.620014 15.174494 -97.611766 87.911838 -100.697070 -11.711478 -21.969442 12.549633 -0.003371 -0.067338 -0.004018 10.224461 -56.440286 -4.092527 115.069717 76.763622 113.915917 -5.940354 -24.238003 -0.058668 0.036798 0.154512 0.013869
1.541019 55.179448 -20.218992 176.969329 -15.523265 -1.957814 0.986592 14.661221 0.636647 0.083681 1.314035 0.059023 0.142007 2.216828 0.100608 0.913400 13.143165 0.688246 0.411812 14.161627 1.881194 0.008513 -10.851160 1.861584 -0.289181 -0.367016 2.647783 2.846346 -4.784112 -8.848194 -61.985645 -65.294730 92.960837 -14.125684 -8.397255 4.209047 -5.732154 -2.279392 2.303363 1.579667 -9.049540 7.623028 43.209249 -51.270203 -82.946499 7.783990 -11.795982 3.748682 0.724383 -59.618045 15.165798 -97.656150 87.914804 -100.743894 -11.761714 -21.973626 12.566320 0.028558 -0.059474 0.001999 10.227493 -56.440714 -4.109903 115.040000 76.764248 113.892327 -5.938228 -24.230230 -0.060592 0.037188 0.152883 0.014486
1.540834 55.179316 -20.219571 176.970778 -15.524791 -1.963301 0.987078 14.662849 0.641237 0.083996 1.313769 0.057550 0.142191 2.217018 0.100363 0.914346 13.143800 0.686792 0.415428 14.162302 1.886484 0.008942 -10.853257 1.862999 -0.288677 -0.370907 2.648167 2.860219 -4.777551 -8.850579 -61.970552 -65.282414 92.937016 -14.119631 -8.404383 4.213906 -5.738901 -2.280667 2.312906 1.576560 -9.052336 7.628445 43.214555 -51.263402 -82.953995 7.777617 -11.794670 3.739913 0.710813 -59.613702 15.170077 -97.688510 87.921233 -100.786704 -11.753615 -21.976573 12.571353 -0.020381 -0.064657 0.000816 10.221179 -56.439979 -4.103812 115.037862 76.767190 113.895911 -5.937147 -24.230878 -0.065362 0.041429 0.154039 0.016836
1.539452 55.179187 -20.221084 176.970677 -15.529289 -1.959472 0.985935 14.666819 0.635916 0.084614 1.314411 0.055909 0.142359 2.217122 0.100109 0.915333 13.144116 0.685329 0.419995 14.161652 1.891509 0.009985 -10.852509 1.868071 -0.291630 -0.376584 2.646125 2.865778 -4.771494 -8.844287 -61.967812 -65.281585 92.931129 -14.116657 -8.397393 4.213174 -5.745977 -2.284526 2.323532 1.572061 -9.057179 7.638900 43.223806 -51.249514 -82.962571 7.769567 -11.790552 3.728187 0.706548 -59.608187 15.187808 -97.590051 87.906348 -100.675402 -11.943186 -21.964859 12.603496 -0.008241 -0.054512 0.010538 10.231353 -56.435346 -4.112159 115.054325 76.772209 113.918856 -5.939954 -24.229459 -0.068952 0.049935 0.151062 0.020769
1.536939 55.178988 -20.223201 176.971765 -15.534515 -1.947556 0.983560 14.671735 0.621430 0.082510 1.315810 0.055715 0.143017 2.217711 0.100008 0.916960 13.144294 0.684007 0.419452 14.160653 1.896018 0.010215 -10.852431 1.872703 -0.290864 -0.382669 2.646397 2.865352 -4.767432 -8.848140 -61.966682 -65.277580 92.931329 -14.114237 -8.396037 4.207823 -5.750547 -2.291811 2.333157 1.573199 -9.054340 7.637854 43.199942 -51.271003 -82.961544 7.783466 -11.802219 3.732804 0.721209 -59.602503 15.188296 -97.543979 87.892159 -100.616787 -12.142112 -21.950942 12.640097 0.001556 -0.047751 0.017039 10.242962 -56.425845 -4.130829 115.055002 76.772914 113.917390 -5.937298 -24.231030 -0.068388 0.050885 0.151207 0.020343
1.537234 55.178446 -20.224224 176.968938 -15.531796 -1.950642 0.985242 14.670986 0.621019 0.084036 1.314159 0.058592 0.143996 2.218841 0.099990 0.919873 13.144001 0.683216 0.415461 14.161802 1.899069 0.005010 -10.849926 1.884921 -0.295518 -0.393504 2.646957 2.860157 -4.761782 -8.855032 -61.949367 -65.273092 92.925006 -14.112936 -8.402185 4.207124 -5.757934 -2.300274 2.341547 1.567916 -9.056362 7.641888 43.200235 -51.271016 -82.960927 7.790239 -11.804950 3.734867 0.714156 -59.604135 15.196140 -97.524126 87.894668 -100.604748 -12.137183 -21.943415 12.641471 0.005833 -0.057775 0.016450 10.235903 -56.431088 -4.120073 115.068805 76.772726 113.927998 -5.933590 -24.230126 -0.066961 0.048521 0.149793 0.018517
1.537288 55.177883 -20.225556 176.969014 -15.528848 -1.952543 0.986770 14.669739 0.624106 0.084372 1.314381 0.058377 0.145121 2.218116 0.098814 0.919354 13.142991 0.683535 0.414500 14.165949 1.909486 0.002887 -10.853017 1.880774 -0.298904 -0.397967 2.654237 2.859077 -4.761902 -8.874908 -61.938828 -65.264879 92.921923 -14.102755 -8.405939 4.204716 -5.761682 -2.307028 2.346846 1.568738 -9.061090 7.642997 43.187855 -51.272372 -82.957557 7.797289 -11.808823 3.739384 0.709395 -59.606603 15.197282 -97.536614 87.895908 -100.624379 -12.101476 -21.933403 12.635843 0.010758 -0.071246 0.015139 10.226835 -56.435674 -4.111475 115.080827 76.777228 113.938171 -5.929351 -24.228547 -0.069200 0.050679 0.148963 0.019320
